<svg xmlns="http://www.w3.org/2000/svg" xmlns:xlink="http://www.w3.org/1999/xlink" width="500" zoomAndPan="magnify" viewBox="0 0 375.12 383.03998" height="500" preserveAspectRatio="xMidYMid meet" version="1.0"><path fill="#000000" d="M 67.058594 37.179688 C 64.726562 37.742188 60.667969 42.054688 57.007812 47.847656 C 53.910156 52.757812 49.542969 63.007812 48.6875 67.386719 C 48.585938 67.902344 48.207031 69.597656 47.851562 71.148438 C 47.03125 74.691406 46.921875 84.882812 47.648438 89.773438 C 48.855469 97.890625 51.421875 104.855469 56.105469 112.726562 C 59.808594 118.949219 64.589844 124.417969 72.625 131.632812 L 74.808594 133.589844 L 74.019531 135.375 C 73.324219 136.949219 70.421875 146.46875 70.03125 148.46875 C 68.9375 154.039062 67.996094 162.398438 67.996094 166.578125 C 67.996094 169.234375 68.980469 178.59375 69.316406 179.140625 C 69.402344 179.273438 69.742188 180.726562 70.074219 182.363281 C 70.410156 184 71.28125 187.035156 72.011719 189.105469 C 74.503906 196.144531 76.941406 199.828125 79.113281 199.828125 C 80.347656 199.828125 82.59375 196.902344 86.144531 190.664062 C 92.621094 179.28125 97.859375 173.953125 107.257812 169.195312 C 112.390625 166.597656 113.863281 166.015625 119.132812 164.476562 C 123.246094 163.28125 125.570312 162.785156 130.019531 162.164062 C 134.042969 161.597656 143.289062 161.953125 146.394531 162.785156 C 157.042969 165.652344 162.335938 173.894531 161.222656 185.894531 C 160.148438 197.46875 153.472656 207.261719 143.402344 212.035156 C 140.730469 213.300781 136.0625 214.835938 133.988281 215.128906 C 133.367188 215.21875 132.605469 215.378906 132.296875 215.488281 C 130.816406 216.015625 124.601562 216.414062 112.742188 216.742188 C 99.21875 217.117188 90.949219 217.71875 88.710938 218.484375 C 88.417969 218.582031 87.574219 218.761719 86.832031 218.878906 C 85.363281 219.109375 81.625 220.59375 80.066406 221.5625 C 75.566406 224.367188 72.199219 228.878906 70.277344 234.671875 C 69.207031 237.914062 69.023438 239.035156 68.859375 243.46875 C 68.703125 247.617188 68.808594 249.214844 69.417969 252.148438 C 71.15625 260.523438 75.863281 267.066406 81.910156 269.507812 C 85.601562 270.996094 92.914062 270.507812 100.144531 268.289062 C 106.722656 266.273438 110.652344 265.546875 115.191406 265.515625 C 120.257812 265.480469 121.34375 265.792969 125.253906 268.425781 C 127.628906 270.027344 129.1875 272.023438 130.480469 275.128906 C 131.222656 276.914062 131.320312 277.820312 131.335938 282.980469 C 131.347656 286.1875 131.246094 291.351562 131.109375 294.457031 C 130.886719 299.671875 130.933594 300.304688 131.722656 302.808594 C 133.617188 308.800781 137.832031 312.242188 145.667969 314.191406 C 149.992188 315.265625 157.414062 315.300781 161.152344 314.261719 C 168.578125 312.199219 172.417969 307.980469 174.382812 299.730469 C 175.117188 296.632812 176.488281 295.332031 180.835938 293.597656 C 181.371094 293.382812 183.09375 293.011719 184.664062 292.777344 C 188.039062 292.261719 191.023438 292.683594 194.285156 294.125 C 197.777344 295.667969 198.800781 296.964844 199.601562 300.835938 C 200.191406 303.714844 200.90625 305.25 202.851562 307.839844 C 205.40625 311.234375 207.988281 312.871094 212.9375 314.230469 C 215.390625 314.902344 216.574219 314.996094 221.144531 314.863281 C 227.160156 314.6875 227.59375 314.613281 231.671875 313.070312 C 236.78125 311.136719 239.433594 308.804688 241.472656 304.445312 C 242.542969 302.152344 242.625 301.679688 242.636719 297.652344 C 242.648438 295.273438 242.507812 290.277344 242.332031 286.554688 C 242.054688 280.710938 242.097656 279.445312 242.644531 277.335938 C 244.027344 272.011719 246.695312 268.726562 251.488281 266.460938 C 253.402344 265.558594 253.925781 265.488281 258.445312 265.515625 C 263.40625 265.550781 267.753906 266.34375 273.671875 268.304688 C 274.8125 268.679688 276.394531 269.089844 277.195312 269.214844 C 277.996094 269.34375 278.792969 269.53125 278.96875 269.640625 C 279.140625 269.75 281.179688 270.003906 283.492188 270.207031 C 290.179688 270.792969 293.484375 269.613281 297.621094 265.15625 C 303.332031 259.007812 306.097656 248.351562 304.328125 239.335938 C 303.484375 235.03125 303.058594 233.753906 301.390625 230.53125 C 299.648438 227.167969 296.703125 223.777344 294.023438 222.054688 C 292.066406 220.800781 288.34375 219.183594 286.597656 218.828125 C 280.222656 217.542969 275.515625 217.160156 261.078125 216.761719 C 244.480469 216.304688 240.738281 215.898438 234.640625 213.890625 C 220.496094 209.238281 211.191406 195.597656 212.121094 180.863281 C 212.601562 173.199219 216.066406 167.675781 222.347656 164.558594 C 223.589844 163.941406 225.113281 163.304688 225.734375 163.136719 C 226.351562 162.972656 227.03125 162.789062 227.238281 162.726562 C 232.015625 161.316406 242.46875 161.644531 251.300781 163.476562 C 253.046875 163.839844 258.566406 165.65625 260.890625 166.628906 C 270.019531 170.46875 276.945312 175.496094 281.746094 181.765625 C 283.089844 183.523438 287.960938 191.3125 287.960938 191.707031 C 287.960938 191.921875 290.34375 195.796875 291.335938 197.195312 C 294.199219 201.230469 296.058594 200.703125 298.992188 195.015625 C 300.84375 191.429688 303.464844 183.1875 304.101562 178.945312 C 304.320312 177.496094 304.605469 175.886719 304.738281 175.371094 C 304.871094 174.855469 305.011719 170.960938 305.050781 166.71875 C 305.121094 159.019531 304.820312 155.675781 303.539062 149.972656 C 303.214844 148.527344 302.765625 146.492188 302.539062 145.460938 C 301.945312 142.730469 300.398438 137.859375 299.414062 135.617188 L 298.5625 133.675781 L 302.417969 130.253906 C 310.851562 122.773438 315.589844 116.738281 320.023438 107.832031 C 322.160156 103.542969 323.859375 99.289062 324.289062 97.136719 C 324.390625 96.632812 324.539062 96.113281 324.625 95.980469 C 325 95.371094 325.976562 89.765625 326.355469 86.015625 C 327.429688 75.488281 325.03125 63.882812 319.574219 53.171875 C 317.636719 49.375 314.308594 43.898438 313.570312 43.304688 C 313.441406 43.203125 312.863281 42.480469 312.28125 41.703125 C 310.890625 39.832031 307.574219 37.355469 306.058594 37.050781 C 305.113281 36.863281 304.65625 36.992188 303.957031 37.648438 C 303.070312 38.484375 303.066406 38.503906 303.089844 47.199219 C 303.105469 52.488281 302.9375 56.871094 302.664062 58.355469 C 301.464844 64.84375 297.988281 72.453125 294.246094 76.792969 C 292.394531 78.9375 286.96875 83.789062 284.453125 85.550781 C 280.535156 88.289062 270.34375 93.722656 269.121094 93.722656 C 268.953125 93.722656 267.410156 92.765625 265.699219 91.59375 C 255.8125 84.839844 242.53125 78.351562 231.183594 74.730469 C 226.457031 73.222656 221.300781 71.804688 218.210938 71.15625 C 216.972656 70.898438 215.449219 70.550781 214.828125 70.382812 C 213.714844 70.085938 210.824219 69.613281 209 69.433594 C 208.484375 69.382812 206.707031 69.164062 205.050781 68.949219 C 197.398438 67.953125 179.71875 67.695312 172.902344 68.480469 C 162.578125 69.675781 158.25 70.320312 153.726562 71.339844 C 152.652344 71.582031 149.011719 72.578125 145.515625 73.59375 C 132.328125 77.410156 118.769531 83.820312 107.988281 91.328125 C 106.097656 92.644531 104.421875 93.722656 104.261719 93.722656 C 103.480469 93.722656 96.625 90.265625 92.621094 87.851562 C 82.472656 81.734375 75.914062 74.1875 72.703125 64.9375 C 70.777344 59.394531 70.238281 54.972656 70.464844 46.605469 C 70.609375 41.234375 70.539062 38.945312 70.214844 38.328125 C 69.484375 36.941406 68.902344 36.730469 67.058594 37.179688 M 185.5 201.714844 C 184.027344 202.367188 183.089844 203.449219 180.765625 207.164062 C 176.796875 213.507812 167.96875 231.203125 166.988281 234.789062 C 166.84375 235.324219 166.726562 237.117188 166.730469 238.773438 C 166.742188 242.28125 167.359375 243.667969 169.613281 245.230469 C 170.742188 246.015625 171.617188 246.257812 173.800781 246.398438 C 175.433594 246.503906 177.117188 246.390625 177.929688 246.125 C 179.230469 245.695312 182.675781 243.523438 183.742188 242.460938 C 185.566406 240.644531 187.480469 240.691406 189.554688 242.605469 C 190.453125 243.433594 192.023438 244.601562 193.042969 245.203125 C 194.722656 246.191406 195.222656 246.296875 198.308594 246.296875 C 201.402344 246.296875 201.867188 246.199219 203.285156 245.261719 C 207.675781 242.355469 207.667969 236.957031 203.257812 227.671875 C 199.011719 218.722656 195.355469 211.644531 193.902344 209.550781 C 193.519531 209.003906 193.207031 208.441406 193.207031 208.300781 C 193.207031 207.527344 189.648438 202.722656 188.609375 202.085938 C 187.277344 201.273438 186.660156 201.199219 185.5 201.714844 " fill-opacity="1" fill-rule="evenodd"/></svg>