<svg xmlns="http://www.w3.org/2000/svg" xmlns:xlink="http://www.w3.org/1999/xlink" width="500" zoomAndPan="magnify" viewBox="0 0 375.12 383.03998" height="500" preserveAspectRatio="xMidYMid meet" version="1.0"><path fill="#ffffff" d="M 67.226562 37.175781 C 64.898438 37.742188 60.832031 42.054688 57.171875 47.84375 C 54.070312 52.753906 49.699219 63.007812 48.84375 67.382812 C 48.742188 67.902344 48.367188 69.59375 48.007812 71.144531 C 47.1875 74.6875 47.078125 84.878906 47.804688 89.769531 C 49.015625 97.886719 51.582031 104.855469 56.269531 112.722656 C 59.972656 118.945312 64.757812 124.414062 72.796875 131.625 L 74.984375 133.585938 L 74.195312 135.371094 C 73.496094 136.945312 70.59375 146.464844 70.203125 148.464844 C 69.105469 154.035156 68.167969 162.394531 68.167969 166.570312 C 68.167969 169.230469 69.152344 178.589844 69.488281 179.132812 C 69.574219 179.269531 69.914062 180.71875 70.246094 182.359375 C 70.582031 183.996094 71.453125 187.027344 72.183594 189.097656 C 74.679688 196.136719 77.121094 199.820312 79.289062 199.820312 C 80.527344 199.820312 82.773438 196.894531 86.324219 190.65625 C 92.808594 179.273438 98.050781 173.949219 107.453125 169.191406 C 112.589844 166.59375 114.0625 166.007812 119.335938 164.472656 C 123.453125 163.273438 125.777344 162.78125 130.230469 162.15625 C 134.253906 161.59375 143.507812 161.945312 146.613281 162.78125 C 157.269531 165.644531 162.5625 173.890625 161.449219 185.886719 C 160.375 197.464844 153.699219 207.253906 143.621094 212.027344 C 140.945312 213.292969 136.277344 214.828125 134.199219 215.121094 C 133.578125 215.210938 132.816406 215.371094 132.503906 215.484375 C 131.023438 216.007812 124.808594 216.40625 112.941406 216.734375 C 99.40625 217.113281 91.132812 217.710938 88.894531 218.476562 C 88.601562 218.574219 87.753906 218.753906 87.011719 218.871094 C 85.542969 219.101562 81.804688 220.585938 80.246094 221.558594 C 75.742188 224.363281 72.371094 228.871094 70.449219 234.664062 C 69.375 237.90625 69.195312 239.027344 69.03125 243.460938 C 68.875 247.609375 68.980469 249.207031 69.589844 252.140625 C 71.328125 260.515625 76.039062 267.054688 82.089844 269.5 C 85.78125 270.988281 93.101562 270.5 100.335938 268.28125 C 106.917969 266.261719 110.851562 265.539062 115.390625 265.507812 C 120.460938 265.472656 121.546875 265.785156 125.460938 268.417969 C 127.839844 270.019531 129.394531 272.015625 130.691406 275.121094 C 131.433594 276.90625 131.53125 277.8125 131.546875 282.972656 C 131.558594 286.179688 131.457031 291.34375 131.320312 294.445312 C 131.09375 299.660156 131.140625 300.296875 131.933594 302.796875 C 133.828125 308.792969 138.046875 312.234375 145.886719 314.179688 C 150.214844 315.257812 157.640625 315.292969 161.378906 314.253906 C 168.8125 312.1875 172.65625 307.96875 174.617188 299.71875 C 175.355469 296.625 176.726562 295.320312 181.078125 293.585938 C 181.613281 293.375 183.335938 293.003906 184.90625 292.765625 C 188.285156 292.253906 191.273438 292.671875 194.53125 294.113281 C 198.027344 295.660156 199.054688 296.957031 199.851562 300.824219 C 200.445312 303.703125 201.160156 305.242188 203.109375 307.828125 C 205.660156 311.222656 208.246094 312.863281 213.199219 314.21875 C 215.652344 314.894531 216.835938 314.984375 221.410156 314.851562 C 227.429688 314.679688 227.863281 314.605469 231.945312 313.0625 C 237.058594 311.128906 239.710938 308.796875 241.75 304.433594 C 242.824219 302.144531 242.90625 301.667969 242.917969 297.644531 C 242.925781 295.265625 242.789062 290.269531 242.613281 286.546875 C 242.335938 280.703125 242.378906 279.4375 242.925781 277.328125 C 244.308594 272.003906 246.980469 268.71875 251.773438 266.453125 C 253.6875 265.550781 254.214844 265.476562 258.734375 265.507812 C 263.699219 265.542969 268.046875 266.335938 273.972656 268.292969 C 275.109375 268.671875 276.695312 269.082031 277.496094 269.207031 C 278.296875 269.332031 279.09375 269.523438 279.269531 269.632812 C 279.445312 269.742188 281.484375 269.996094 283.800781 270.199219 C 290.488281 270.785156 293.796875 269.605469 297.9375 265.148438 C 303.648438 259 306.417969 248.34375 304.648438 239.328125 C 303.800781 235.023438 303.375 233.746094 301.707031 230.523438 C 299.964844 227.160156 297.015625 223.769531 294.335938 222.046875 C 292.378906 220.792969 288.652344 219.175781 286.90625 218.824219 C 280.527344 217.535156 275.816406 217.15625 261.367188 216.753906 C 244.761719 216.296875 241.019531 215.890625 234.917969 213.882812 C 220.761719 209.230469 211.453125 195.589844 212.382812 180.855469 C 212.863281 173.195312 216.332031 167.671875 222.617188 164.554688 C 223.859375 163.9375 225.382812 163.296875 226.003906 163.132812 C 226.621094 162.96875 227.300781 162.78125 227.507812 162.722656 C 232.289062 161.3125 242.75 161.636719 251.585938 163.46875 C 253.332031 163.832031 258.855469 165.648438 261.179688 166.625 C 270.316406 170.460938 277.246094 175.488281 282.050781 181.761719 C 283.394531 183.515625 288.269531 191.304688 288.269531 191.699219 C 288.269531 191.914062 290.652344 195.789062 291.648438 197.191406 C 294.511719 201.226562 296.371094 200.695312 299.308594 195.007812 C 301.160156 191.421875 303.78125 183.179688 304.421875 178.941406 C 304.636719 177.492188 304.925781 175.882812 305.058594 175.367188 C 305.1875 174.847656 305.328125 170.953125 305.371094 166.710938 C 305.441406 159.015625 305.140625 155.671875 303.859375 149.96875 C 303.535156 148.519531 303.082031 146.488281 302.855469 145.453125 C 302.261719 142.726562 300.714844 137.855469 299.730469 135.613281 L 298.878906 133.671875 L 302.738281 130.25 C 311.175781 122.765625 315.914062 116.734375 320.351562 107.828125 C 322.492188 103.539062 324.1875 99.285156 324.621094 97.132812 C 324.722656 96.628906 324.871094 96.109375 324.953125 95.976562 C 325.332031 95.367188 326.308594 89.761719 326.691406 86.011719 C 327.761719 75.484375 325.363281 63.878906 319.902344 53.171875 C 317.964844 49.371094 314.632812 43.898438 313.894531 43.304688 C 313.765625 43.199219 313.1875 42.480469 312.605469 41.699219 C 311.214844 39.832031 307.894531 37.351562 306.378906 37.050781 C 305.429688 36.859375 304.976562 36.988281 304.277344 37.644531 C 303.386719 38.480469 303.386719 38.5 303.410156 47.195312 C 303.425781 52.488281 303.257812 56.867188 302.980469 58.355469 C 301.78125 64.839844 298.304688 72.453125 294.558594 76.789062 C 292.707031 78.933594 287.277344 83.785156 284.757812 85.546875 C 280.839844 88.285156 270.640625 93.722656 269.417969 93.722656 C 269.25 93.722656 267.707031 92.761719 265.992188 91.589844 C 256.101562 84.835938 242.8125 78.347656 231.457031 74.730469 C 226.726562 73.222656 221.566406 71.800781 218.476562 71.15625 C 217.234375 70.894531 215.710938 70.546875 215.089844 70.382812 C 213.976562 70.082031 211.082031 69.613281 209.257812 69.433594 C 208.742188 69.382812 206.964844 69.164062 205.308594 68.949219 C 197.648438 67.949219 179.960938 67.691406 173.140625 68.480469 C 162.804688 69.671875 158.476562 70.316406 153.953125 71.335938 C 152.875 71.578125 149.230469 72.578125 145.734375 73.589844 C 132.539062 77.40625 118.972656 83.816406 108.183594 91.324219 C 106.292969 92.644531 104.613281 93.722656 104.457031 93.722656 C 103.675781 93.722656 96.816406 90.261719 92.808594 87.847656 C 82.652344 81.730469 76.089844 74.183594 72.875 64.9375 C 70.949219 59.394531 70.410156 54.96875 70.636719 46.601562 C 70.78125 41.230469 70.710938 38.941406 70.386719 38.324219 C 69.65625 36.941406 69.074219 36.730469 67.226562 37.175781 M 185.742188 201.707031 C 184.273438 202.363281 183.332031 203.441406 181.003906 207.15625 C 177.035156 213.5 168.203125 231.195312 167.222656 234.78125 C 167.074219 235.316406 166.960938 237.109375 166.964844 238.769531 C 166.972656 242.273438 167.59375 243.660156 169.847656 245.222656 C 170.976562 246.007812 171.851562 246.25 174.039062 246.390625 C 175.671875 246.496094 177.359375 246.382812 178.167969 246.117188 C 179.472656 245.6875 182.921875 243.515625 183.984375 242.453125 C 185.8125 240.636719 187.726562 240.683594 189.800781 242.597656 C 190.699219 243.425781 192.269531 244.59375 193.292969 245.195312 C 194.972656 246.183594 195.472656 246.289062 198.5625 246.289062 C 201.65625 246.289062 202.121094 246.191406 203.539062 245.253906 C 207.933594 242.347656 207.925781 236.949219 203.515625 227.664062 C 199.265625 218.714844 195.609375 211.640625 194.152344 209.546875 C 193.769531 208.996094 193.457031 208.433594 193.457031 208.292969 C 193.457031 207.523438 189.898438 202.714844 188.855469 202.078125 C 187.523438 201.265625 186.90625 201.191406 185.742188 201.707031 " fill-opacity="1" fill-rule="evenodd"/></svg>